<svg xmlns="http://www.w3.org/2000/svg" xmlns:xlink="http://www.w3.org/1999/xlink" contentStyleType="text/css" height="656px" preserveAspectRatio="none" style="width:1626px;height:656px;background:#FFFFFF;" version="1.1" viewBox="0 0 1626 656" width="1626px" zoomAndPan="magnify"><defs/><g><!--cluster c1--><g id="cluster_c1"><rect fill="none" height="214" rx="2.5" ry="2.5" style="stroke:#444444;stroke-width:1.0;stroke-dasharray:7.0,7.0;" width="412" x="1208" y="412"/><text fill="#444444" font-family="sans-serif" font-size="16" font-weight="bold" lengthAdjust="spacing" textLength="129.3203" x="1349.3398" y="448.8516">eDelivery DNS</text><text fill="#444444" font-family="sans-serif" font-size="12" font-weight="bold" lengthAdjust="spacing" textLength="59.4551" x="1384.2725" y="463.7637">[system]</text></g><!--cluster ecosystemSMLService--><g id="cluster_ecosystemSMLService"><rect fill="none" height="643" rx="2.5" ry="2.5" style="stroke:#444444;stroke-width:1.0;stroke-dasharray:7.0,7.0;" width="1177" x="7" y="7"/><text fill="#444444" font-family="sans-serif" font-size="16" font-weight="bold" lengthAdjust="spacing" textLength="368.9922" x="411.0039" y="33.8516">Peppol Dynamic discovery infrastructure</text><text fill="#444444" font-family="sans-serif" font-size="12" font-weight="bold" lengthAdjust="spacing" textLength="113.3379" x="538.8311" y="48.7637">[Federated DNS]</text></g><!--cluster c2--><g id="cluster_c2"><rect fill="none" height="550" rx="2.5" ry="2.5" style="stroke:#444444;stroke-width:1.0;stroke-dasharray:7.0,7.0;" width="430" x="31" y="76"/><text fill="#444444" font-family="sans-serif" font-size="16" font-weight="bold" lengthAdjust="spacing" textLength="145.7422" x="173.1289" y="112.8516">TopDomain DNS</text><text fill="#444444" font-family="sans-serif" font-size="12" font-weight="bold" lengthAdjust="spacing" textLength="59.4551" x="216.2725" y="127.7637">[system]</text></g><!--entity eDeliveryDNS--><g id="elem_eDeliveryDNS"><path d="M1223.5,493 C1223.5,483 1413.7822,483 1413.7822,483 C1413.7822,483 1604.0645,483 1604.0645,493 L1604.0645,599.7813 C1604.0645,609.7813 1413.7822,609.7813 1413.7822,609.7813 C1413.7822,609.7813 1223.5,609.7813 1223.5,599.7813 L1223.5,493 " fill="#1168BD" style="stroke:#3C7FC0;stroke-width:0.5;"/><path d="M1223.5,493 C1223.5,503 1413.7822,503 1413.7822,503 C1413.7822,503 1604.0645,503 1604.0645,493 " fill="none" style="stroke:#3C7FC0;stroke-width:0.5;"/><text fill="#FFFFFF" font-family="sans-serif" font-size="12" font-style="italic" lengthAdjust="spacing" textLength="58.1953" x="1384.6846" y="518.1387">&#171;system&#187;</text><text fill="#FFFFFF" font-family="sans-serif" font-size="16" font-weight="bold" lengthAdjust="spacing" textLength="259.4453" x="1284.0596" y="535.8203">.edelivery.tech.ec.europa.eu</text><text fill="#FFFFFF" font-family="sans-serif" font-size="14" lengthAdjust="spacing" textLength="4.4502" x="1411.5571" y="552.5889">&#160;</text><ellipse cx="1239" cy="564.6875" fill="#FFFFFF" rx="2.5" ry="2.5" style="stroke:#FFFFFF;stroke-width:0.0;"/><text fill="#FFFFFF" font-family="sans-serif" font-size="14" lengthAdjust="spacing" textLength="348.5645" x="1245.5" y="568.8857">.iso6523-actorid-upis.edelivery.tech.ec.europa.eu</text><text fill="#FFFFFF" font-family="sans-serif" font-size="14" lengthAdjust="spacing" textLength="4.4502" x="1411.5571" y="585.1826">&#160;</text><text fill="#FFFFFF" font-family="sans-serif" font-size="14" lengthAdjust="spacing" textLength="4.4502" x="1411.5571" y="601.4795">&#160;</text></g><!--entity delegatedDNS--><g id="elem_delegatedDNS"><path d="M480.5,484 C480.5,474 679.8623,474 679.8623,474 C679.8623,474 879.2246,474 879.2246,484 L879.2246,609.4063 C879.2246,619.4063 679.8623,619.4063 679.8623,619.4063 C679.8623,619.4063 480.5,619.4063 480.5,609.4063 L480.5,484 " fill="#1168BD" style="stroke:#3C7FC0;stroke-width:0.5;"/><path d="M480.5,484 C480.5,494 679.8623,494 679.8623,494 C679.8623,494 879.2246,494 879.2246,484 " fill="none" style="stroke:#3C7FC0;stroke-width:0.5;"/><text fill="#FFFFFF" font-family="sans-serif" font-size="12" font-style="italic" lengthAdjust="spacing" textLength="58.1953" x="650.7646" y="509.1387">&#171;system&#187;</text><text fill="#FFFFFF" font-family="sans-serif" font-size="16" font-weight="bold" lengthAdjust="spacing" textLength="92.6719" x="611.6436" y="526.8203">Delegated</text><text fill="#FFFFFF" font-family="sans-serif" font-size="16" font-weight="bold" lengthAdjust="spacing" textLength="5.5703" x="704.3154" y="526.8203">&#160;</text><text fill="#FFFFFF" font-family="sans-serif" font-size="16" font-weight="bold" lengthAdjust="spacing" textLength="38.1953" x="709.8857" y="526.8203">DNS</text><text fill="#FFFFFF" font-family="sans-serif" font-size="16" font-weight="bold" lengthAdjust="spacing" textLength="39.5391" x="660.0928" y="545.4453">(NS)</text><text fill="#FFFFFF" font-family="sans-serif" font-size="14" lengthAdjust="spacing" textLength="4.4502" x="677.6372" y="562.2139">&#160;</text><text fill="#FFFFFF" font-family="sans-serif" font-size="14" lengthAdjust="spacing" textLength="282.249" x="538.7378" y="578.5107">0195.is6523.participants.ecosystem.org</text><text fill="#FFFFFF" font-family="sans-serif" font-size="14" lengthAdjust="spacing" textLength="378.7246" x="490.5" y="594.8076">0195.iso6523-actorid-upis.participants.ecosystem.org</text><text fill="#FFFFFF" font-family="sans-serif" font-size="14" lengthAdjust="spacing" textLength="4.4502" x="677.6372" y="611.1045">&#160;</text></g><!--entity redirectedDNS--><g id="elem_redirectedDNS"><path d="M914.5,492 C914.5,482 1041.0083,482 1041.0083,482 C1041.0083,482 1167.5166,482 1167.5166,492 L1167.5166,601.1094 C1167.5166,611.1094 1041.0083,611.1094 1041.0083,611.1094 C1041.0083,611.1094 914.5,611.1094 914.5,601.1094 L914.5,492 " fill="#1168BD" style="stroke:#3C7FC0;stroke-width:0.5;"/><path d="M914.5,492 C914.5,502 1041.0083,502 1041.0083,502 C1041.0083,502 1167.5166,502 1167.5166,492 " fill="none" style="stroke:#3C7FC0;stroke-width:0.5;"/><text fill="#FFFFFF" font-family="sans-serif" font-size="12" font-style="italic" lengthAdjust="spacing" textLength="58.1953" x="1011.9106" y="517.1387">&#171;system&#187;</text><text fill="#FFFFFF" font-family="sans-serif" font-size="16" font-weight="bold" lengthAdjust="spacing" textLength="98.2891" x="969.981" y="534.8203">Redirected</text><text fill="#FFFFFF" font-family="sans-serif" font-size="16" font-weight="bold" lengthAdjust="spacing" textLength="5.5703" x="1068.27" y="534.8203">&#160;</text><text fill="#FFFFFF" font-family="sans-serif" font-size="16" font-weight="bold" lengthAdjust="spacing" textLength="38.1953" x="1073.8403" y="534.8203">DNS</text><text fill="#FFFFFF" font-family="sans-serif" font-size="16" font-weight="bold" lengthAdjust="spacing" textLength="80.5313" x="1000.7427" y="553.4453">(DNAME)</text><text fill="#FFFFFF" font-family="sans-serif" font-size="14" lengthAdjust="spacing" textLength="4.4502" x="1038.7832" y="570.2139">&#160;</text><text fill="#FFFFFF" font-family="sans-serif" font-size="14" lengthAdjust="spacing" textLength="140.9912" x="970.5127" y="586.5107">9914.is6523.g2b.at,</text><text fill="#FFFFFF" font-family="sans-serif" font-size="14" lengthAdjust="spacing" textLength="233.0166" x="924.5" y="602.8076">9914.iso6523-actorid-upis.g2b.at</text></g><!--entity PeppolDNS--><g id="elem_PeppolDNS"><path d="M67,157 C67,147 255.8145,147 255.8145,147 C255.8145,147 444.6289,147 444.6289,157 L444.6289,312.6719 C444.6289,322.6719 255.8145,322.6719 255.8145,322.6719 C255.8145,322.6719 67,322.6719 67,312.6719 L67,157 " fill="#1168BD" style="stroke:#3C7FC0;stroke-width:0.5;"/><path d="M67,157 C67,167 255.8145,167 255.8145,167 C255.8145,167 444.6289,167 444.6289,157 " fill="none" style="stroke:#3C7FC0;stroke-width:0.5;"/><text fill="#FFFFFF" font-family="sans-serif" font-size="12" font-style="italic" lengthAdjust="spacing" textLength="58.1953" x="226.7168" y="182.1387">&#171;system&#187;</text><text fill="#FFFFFF" font-family="sans-serif" font-size="16" font-weight="bold" lengthAdjust="spacing" textLength="278.8516" x="116.3887" y="199.8203">is6523.participants.peppol.org</text><text fill="#FFFFFF" font-family="sans-serif" font-size="14" lengthAdjust="spacing" textLength="4.4502" x="253.5894" y="216.5889">&#160;</text><text fill="#FFFFFF" font-family="sans-serif" font-size="14" lengthAdjust="spacing" textLength="51.7549" x="229.937" y="232.8857">DNAME</text><text fill="#FFFFFF" font-family="sans-serif" font-size="14" lengthAdjust="spacing" textLength="329.7246" x="90.9521" y="249.1826">0088.is6523.participants.peppol.org-&gt;subzone</text><text fill="#FFFFFF" font-family="sans-serif" font-size="14" lengthAdjust="spacing" textLength="357.6289" x="77" y="265.4795">0195.is6523.participants.peppol.org-&gt;delegate-SG</text><text fill="#FFFFFF" font-family="sans-serif" font-size="14" lengthAdjust="spacing" textLength="349.1523" x="81.2383" y="281.7764">9925.is6523.participants.peppol.org-&gt;redirect-AT</text><text fill="#FFFFFF" font-family="sans-serif" font-size="14" lengthAdjust="spacing" textLength="335.5078" x="88.0605" y="298.0732">xxxx.is6523.participants.peppol.org-&gt;eDelivery</text><text fill="#FFFFFF" font-family="sans-serif" font-size="14" lengthAdjust="spacing" textLength="13.3506" x="249.1392" y="314.3701">...</text></g><!--entity ecosystemDNSSubzone--><g id="elem_ecosystemDNSSubzone"><path d="M46.5,493 C46.5,483 245.8623,483 245.8623,483 C245.8623,483 445.2246,483 445.2246,493 L445.2246,599.7813 C445.2246,609.7813 245.8623,609.7813 245.8623,609.7813 C245.8623,609.7813 46.5,609.7813 46.5,599.7813 L46.5,493 " fill="#1168BD" style="stroke:#3C7FC0;stroke-width:0.5;"/><path d="M46.5,493 C46.5,503 245.8623,503 245.8623,503 C245.8623,503 445.2246,503 445.2246,493 " fill="none" style="stroke:#3C7FC0;stroke-width:0.5;"/><text fill="#FFFFFF" font-family="sans-serif" font-size="12" font-style="italic" lengthAdjust="spacing" textLength="58.1953" x="216.7646" y="518.1387">&#171;system&#187;</text><text fill="#FFFFFF" font-family="sans-serif" font-size="16" font-weight="bold" lengthAdjust="spacing" textLength="38.1953" x="186.5225" y="535.8203">DNS</text><text fill="#FFFFFF" font-family="sans-serif" font-size="16" font-weight="bold" lengthAdjust="spacing" textLength="5.5703" x="224.7178" y="535.8203">&#160;</text><text fill="#FFFFFF" font-family="sans-serif" font-size="16" font-weight="bold" lengthAdjust="spacing" textLength="74.9141" x="230.2881" y="535.8203">subzone</text><text fill="#FFFFFF" font-family="sans-serif" font-size="14" lengthAdjust="spacing" textLength="4.4502" x="243.6372" y="552.5889">&#160;</text><text fill="#FFFFFF" font-family="sans-serif" font-size="14" lengthAdjust="spacing" textLength="282.249" x="104.7378" y="568.8857">0088.is6523.participants.ecosystem.org</text><text fill="#FFFFFF" font-family="sans-serif" font-size="14" lengthAdjust="spacing" textLength="378.7246" x="56.5" y="585.1826">0088.iso6523-actorid-upis.participants.ecosystem.org</text><text fill="#FFFFFF" font-family="sans-serif" font-size="14" lengthAdjust="spacing" textLength="4.4502" x="243.6372" y="601.4795">&#160;</text></g><!--link PeppolDNS to ecosystemDNSSubzone--><g id="link_PeppolDNS_ecosystemDNSSubzone"><path d="M178.06,323.09 C172.41,332.7 167.55,342.74 164,353 C148.73,397.11 165.0585,438.7531 189.4885,475.9531 " fill="none" id="PeppolDNS-to-ecosystemDNSSubzone" style="stroke:#666666;stroke-width:1.0;"/><polygon fill="#666666" points="193.88,482.64,191.9962,474.3063,186.9809,477.5999,193.88,482.64" style="stroke:#666666;stroke-width:1.0;"/><text fill="#666666" font-family="sans-serif" font-size="12" font-weight="bold" lengthAdjust="spacing" textLength="57.6855" x="183.75" y="372.1387">Subzone</text><text fill="#666666" font-family="sans-serif" font-size="12" font-style="italic" lengthAdjust="spacing" textLength="56.1504" x="165" y="386.1074">[Subzone</text><text fill="#666666" font-family="sans-serif" font-size="12" font-style="italic" lengthAdjust="spacing" textLength="3.8145" x="221.1504" y="386.1074">&#160;</text><text fill="#666666" font-family="sans-serif" font-size="12" font-style="italic" lengthAdjust="spacing" textLength="35.2207" x="224.9648" y="386.1074">0088]</text></g><!--link PeppolDNS to delegatedDNS--><g id="link_PeppolDNS_delegatedDNS"><path d="M375.24,323.04 C440.51,370.69 513.9382,424.2835 575.5482,469.2535 " fill="none" id="PeppolDNS-to-delegatedDNS" style="stroke:#666666;stroke-width:1.0;"/><polygon fill="#666666" points="582.01,473.97,577.3169,466.8303,573.7795,471.6766,582.01,473.97" style="stroke:#666666;stroke-width:1.0;"/><text fill="#666666" font-family="sans-serif" font-size="12" font-weight="bold" lengthAdjust="spacing" textLength="60.9141" x="486.1357" y="372.1387">Delegate</text><text fill="#666666" font-family="sans-serif" font-size="12" font-style="italic" lengthAdjust="spacing" textLength="56.1504" x="469" y="386.1074">[Subzone</text><text fill="#666666" font-family="sans-serif" font-size="12" font-style="italic" lengthAdjust="spacing" textLength="3.8145" x="525.1504" y="386.1074">&#160;</text><text fill="#666666" font-family="sans-serif" font-size="12" font-style="italic" lengthAdjust="spacing" textLength="35.2207" x="528.9648" y="386.1074">0195]</text></g><!--link PeppolDNS to delegatedDNS--><!--link PeppolDNS to redirectedDNS--><g id="link_PeppolDNS_redirectedDNS"><path d="M445.14,284.33 C630.52,331.89 886.82,398.22 897,404 C931.9,423.82 958.9735,448.3134 984.2335,475.8634 " fill="none" id="PeppolDNS-to-redirectedDNS" style="stroke:#666666;stroke-width:1.0;"/><polygon fill="#666666" points="989.64,481.76,986.4448,473.836,982.0223,477.8908,989.64,481.76" style="stroke:#666666;stroke-width:1.0;"/><text fill="#666666" font-family="sans-serif" font-size="12" font-weight="bold" lengthAdjust="spacing" textLength="56.9883" x="887.0986" y="372.1387">Redirect</text><text fill="#666666" font-family="sans-serif" font-size="12" font-style="italic" lengthAdjust="spacing" textLength="56.1504" x="868" y="386.1074">[Subzone</text><text fill="#666666" font-family="sans-serif" font-size="12" font-style="italic" lengthAdjust="spacing" textLength="3.8145" x="924.1504" y="386.1074">&#160;</text><text fill="#666666" font-family="sans-serif" font-size="12" font-style="italic" lengthAdjust="spacing" textLength="35.2207" x="927.9648" y="386.1074">9914]</text></g><!--link PeppolDNS to redirectedDNS--><!--link PeppolDNS to eDeliveryDNS--><g id="link_PeppolDNS_eDeliveryDNS"><path d="M445.16,247.54 C676.11,263.77 1051.8,297.71 1180,353 C1248.59,382.58 1307.4447,432.9016 1351.2747,476.9116 " fill="none" id="PeppolDNS-to-eDeliveryDNS" style="stroke:#666666;stroke-width:1.0;"/><polygon fill="#666666" points="1356.92,482.58,1353.4004,474.7946,1349.1491,479.0285,1356.92,482.58" style="stroke:#666666;stroke-width:1.0;"/><text fill="#666666" font-family="sans-serif" font-size="12" font-weight="bold" lengthAdjust="spacing" textLength="56.9883" x="1260.8389" y="365.1387">Redirect</text><text fill="#666666" font-family="sans-serif" font-size="12" font-weight="bold" lengthAdjust="spacing" textLength="4.1777" x="1317.8271" y="365.1387">&#160;</text><text fill="#666666" font-family="sans-serif" font-size="12" font-weight="bold" lengthAdjust="spacing" textLength="13.9805" x="1322.0049" y="365.1387">to</text><text fill="#666666" font-family="sans-serif" font-size="12" font-weight="bold" lengthAdjust="spacing" textLength="57.6855" x="1252" y="379.1074">Subzone</text><text fill="#666666" font-family="sans-serif" font-size="12" font-weight="bold" lengthAdjust="spacing" textLength="4.1777" x="1309.6855" y="379.1074">&#160;</text><text fill="#666666" font-family="sans-serif" font-size="12" font-weight="bold" lengthAdjust="spacing" textLength="30.9609" x="1313.8633" y="379.1074">xxxx</text><text fill="#666666" font-family="sans-serif" font-size="12" font-style="italic" lengthAdjust="spacing" textLength="53.7246" x="1271.5498" y="393.0762">[DNAME]</text></g><!--SRC=[dPHVRzem5CNVyocyFC7KcCBQgUnXKjTiUm5KDTrR96ISEx2Ks9RjTCkcVlTUvzyA9I0jBs3ddDpVFTV9Eo5vNcP0Tivf-saoCUmNtGgtApUb1SELT20TvQgOw9n9LnPvP5sMYytaxYgwzri_bej9mQm3WrlhEtGm8S5GZTeW298ARnNhBwgK6JFLY4ylI0WnvE89J4NYLHAEoT-0j5SZZpUZNe8AT538sZLrm7SKE8NIACtm9yJxxwcmwkFrx4F4k5D6P56fXJtbIcKgmt7mZ8mz771bQu1akKZ0F0aE-Enxq5hb9AuaAmGdcR1SrV12_ZJOkIcvAmruZ6zOq307MTzOGDuaC4FXezAnAZ2fuGIQiatxmlhUg6R62IuqncwfhkzJPRQ-ShowNNvDvUNbpGqzhOu-stBpHqb0zNH-VLQD4S8MUugIxwcSpsVd7GOoOO2xwFOnbR_nEklefvrAIYcEvUrvw4Q3WIGDVzrrGjfkV0Y3tVTkNwvFwSY1EULgiPw3FR0kdgoPLDmj_M1JELebuvfiAEb3iaRtVsGzKpU03kgXNxTKzMcfmURpwLK7jfrjA7CNVihrvX6AHeBrwe8FaBy-fiTdbFoRJ_kN-FnRveD73AIvPyQ8Zfk7sdxjzgsrxWMhrl5GyG79Nedcwn44Xp7iVxew2k9KAZiC_rRqhsquVW40]--></g></svg>