<svg xmlns="http://www.w3.org/2000/svg" xmlns:xlink="http://www.w3.org/1999/xlink" contentStyleType="text/css" height="565px" preserveAspectRatio="none" style="width:425px;height:565px;background:#FFFFFF;" version="1.1" viewBox="0 0 425 565" width="425px" zoomAndPan="magnify"><defs/><g><!--cluster c1--><g id="cluster_c1"><rect fill="none" height="214" rx="2.5" ry="2.5" style="stroke:#444444;stroke-width:1.0;stroke-dasharray:7.0,7.0;" width="412" x="7" y="345"/><text fill="#444444" font-family="sans-serif" font-size="16" font-weight="bold" lengthAdjust="spacing" textLength="129.3203" x="148.3398" y="381.8516">eDelivery DNS</text><text fill="#444444" font-family="sans-serif" font-size="12" font-weight="bold" lengthAdjust="spacing" textLength="59.4551" x="183.2725" y="396.7637">[system]</text></g><!--cluster c2--><g id="cluster_c2"><rect fill="none" height="263" rx="2.5" ry="2.5" style="stroke:#444444;stroke-width:1.0;stroke-dasharray:7.0,7.0;" width="390" x="18" y="7"/><text fill="#444444" font-family="sans-serif" font-size="16" font-weight="bold" lengthAdjust="spacing" textLength="105.7266" x="160.1367" y="43.8516">Peppol DNS</text><text fill="#444444" font-family="sans-serif" font-size="12" font-weight="bold" lengthAdjust="spacing" textLength="59.4551" x="183.2725" y="58.7637">[system]</text></g><!--entity eDeliveryDNS--><g id="elem_eDeliveryDNS"><path d="M22.5,426 C22.5,416 212.7822,416 212.7822,416 C212.7822,416 403.0645,416 403.0645,426 L403.0645,532.7813 C403.0645,542.7813 212.7822,542.7813 212.7822,542.7813 C212.7822,542.7813 22.5,542.7813 22.5,532.7813 L22.5,426 " fill="#1168BD" style="stroke:#3C7FC0;stroke-width:0.5;"/><path d="M22.5,426 C22.5,436 212.7822,436 212.7822,436 C212.7822,436 403.0645,436 403.0645,426 " fill="none" style="stroke:#3C7FC0;stroke-width:0.5;"/><text fill="#FFFFFF" font-family="sans-serif" font-size="12" font-style="italic" lengthAdjust="spacing" textLength="58.1953" x="183.6846" y="451.1387">&#171;system&#187;</text><text fill="#FFFFFF" font-family="sans-serif" font-size="16" font-weight="bold" lengthAdjust="spacing" textLength="259.4453" x="83.0596" y="468.8203">.edelivery.tech.ec.europa.eu</text><text fill="#FFFFFF" font-family="sans-serif" font-size="14" lengthAdjust="spacing" textLength="4.4502" x="210.5571" y="485.5889">&#160;</text><ellipse cx="38" cy="497.6875" fill="#FFFFFF" rx="2.5" ry="2.5" style="stroke:#FFFFFF;stroke-width:0.0;"/><text fill="#FFFFFF" font-family="sans-serif" font-size="14" lengthAdjust="spacing" textLength="348.5645" x="44.5" y="501.8857">.iso6523-actorid-upis.edelivery.tech.ec.europa.eu</text><text fill="#FFFFFF" font-family="sans-serif" font-size="14" lengthAdjust="spacing" textLength="4.4502" x="210.5571" y="518.1826">&#160;</text><text fill="#FFFFFF" font-family="sans-serif" font-size="14" lengthAdjust="spacing" textLength="4.4502" x="210.5571" y="534.4795">&#160;</text></g><!--entity PeppolDNS--><g id="elem_PeppolDNS"><path d="M34,88 C34,78 212.998,78 212.998,78 C212.998,78 391.9961,78 391.9961,88 L391.9961,243.6719 C391.9961,253.6719 212.998,253.6719 212.998,253.6719 C212.998,253.6719 34,253.6719 34,243.6719 L34,88 " fill="#1168BD" style="stroke:#3C7FC0;stroke-width:0.5;"/><path d="M34,88 C34,98 212.998,98 212.998,98 C212.998,98 391.9961,98 391.9961,88 " fill="none" style="stroke:#3C7FC0;stroke-width:0.5;"/><text fill="#FFFFFF" font-family="sans-serif" font-size="12" font-style="italic" lengthAdjust="spacing" textLength="58.1953" x="183.9004" y="113.1387">&#171;system&#187;</text><text fill="#FFFFFF" font-family="sans-serif" font-size="16" font-weight="bold" lengthAdjust="spacing" textLength="278.8516" x="73.5723" y="130.8203">iso6523.participants.peppol.org</text><text fill="#FFFFFF" font-family="sans-serif" font-size="14" lengthAdjust="spacing" textLength="4.4502" x="210.7729" y="147.5889">&#160;</text><text fill="#FFFFFF" font-family="sans-serif" font-size="14" lengthAdjust="spacing" textLength="51.7549" x="187.1206" y="163.8857">DNAME</text><text fill="#FFFFFF" font-family="sans-serif" font-size="14" lengthAdjust="spacing" textLength="337.9961" x="44" y="180.1826">0088.iso6523.participants.peppol.org-&gt;eDelivery</text><text fill="#FFFFFF" font-family="sans-serif" font-size="14" lengthAdjust="spacing" textLength="337.9961" x="44" y="196.4795">0195.iso6523.participants.peppol.org-&gt;eDelivery</text><text fill="#FFFFFF" font-family="sans-serif" font-size="14" lengthAdjust="spacing" textLength="337.9961" x="44" y="212.7764">9925.iso6523.participants.peppol.org-&gt;eDelivery</text><text fill="#FFFFFF" font-family="sans-serif" font-size="14" lengthAdjust="spacing" textLength="335.5078" x="45.2441" y="229.0732">xxxx.iso6523.participants.peppol.org-&gt;eDelivery</text><text fill="#FFFFFF" font-family="sans-serif" font-size="14" lengthAdjust="spacing" textLength="13.3506" x="206.3228" y="245.3701">...</text></g><!--link PeppolDNS to eDeliveryDNS--><g id="link_PeppolDNS_eDeliveryDNS"><path d="M213,254.18 C213,305.48 213,361.17 213,407.57 " fill="none" id="PeppolDNS-to-eDeliveryDNS" style="stroke:#666666;stroke-width:1.0;"/><polygon fill="#666666" points="213,415.57,216,407.57,210,407.57,213,415.57" style="stroke:#666666;stroke-width:1.0;"/><text fill="#666666" font-family="sans-serif" font-size="12" font-weight="bold" lengthAdjust="spacing" textLength="56.9883" x="222.8389" y="298.1387">Redirect</text><text fill="#666666" font-family="sans-serif" font-size="12" font-weight="bold" lengthAdjust="spacing" textLength="4.1777" x="279.8271" y="298.1387">&#160;</text><text fill="#666666" font-family="sans-serif" font-size="12" font-weight="bold" lengthAdjust="spacing" textLength="13.9805" x="284.0049" y="298.1387">to</text><text fill="#666666" font-family="sans-serif" font-size="12" font-weight="bold" lengthAdjust="spacing" textLength="57.6855" x="214" y="312.1074">Subzone</text><text fill="#666666" font-family="sans-serif" font-size="12" font-weight="bold" lengthAdjust="spacing" textLength="4.1777" x="271.6855" y="312.1074">&#160;</text><text fill="#666666" font-family="sans-serif" font-size="12" font-weight="bold" lengthAdjust="spacing" textLength="30.9609" x="275.8633" y="312.1074">xxxx</text><text fill="#666666" font-family="sans-serif" font-size="12" font-style="italic" lengthAdjust="spacing" textLength="53.7246" x="233.5498" y="326.0762">[DNAME]</text></g><!--SRC=[bP5BQm8n58Nt-HNfhBHqxgYjHRiej4vtLKJfRa0ocOi6Cad8ewqj_U_DE3Bq0OBPXDpptToJamkXk0mLqfttnjrbcMLli1L-5yhWq7AjF2eFNDUPaKpvKClK-KgACflTfCkcz39_pchcFDfOsinY1nCABPZ84aBM-oZLcqSTLCNiliU7LpJ17ALuHRkd-MATzEadeSVLuddPwv18n0x0wdW6Ztm7o063rOR5BOdw9GYdRyUZwvHnhwseqc24EzLLg48bVVBrt-4ethT4OxJyPQ-prcgjB-6QeM2OzO8B4_DmO0uwQBjjdEMBX_bJeGQ3oGHEq-bzz-Z83wVZS_ZfT7GM_nxNEJm07D8YP8NoPmH_Fcg5bR38FVMwKEjGVcY5j1dMPP7qlm40]--></g></svg>